<svg xmlns="http://www.w3.org/2000/svg" width="122.817" height="15.674" viewBox="0 0 168.43476 24.491101"><g fill="#57c9f4"><path d="M121.325 17.76H102.98V5.72h18.345v12.04zM121.273 0h-18.245c-4.664 0-6.925 2.302-6.925 6.458v10.56c0 4.157 2.26 6.457 6.926 6.457h18.24c4.67 0 6.927-2.3 6.927-6.458V6.457C128.2 2.302 125.94 0 121.27 0M-11.75 23.475h30.608V17.76H-4.987v-3.27h23.405V8.767H-4.987V5.72h23.845V0h-30.61v23.475m67.718 0h6.764V0h-6.764v23.475zm10.25-17.017v10.56c0 4.157 2.256 6.457 6.925 6.457h19.496V17.76H73.09V5.72h19.543V0H73.14c-4.668 0-6.925 2.302-6.925 6.458M45.61 9.046H29.1V5.72h16.51v3.326zM45.556 0H22.34v23.475h6.76v-8.712h16.457c4.665 0 6.927-2.3 6.927-6.454V6.454C52.484 2.302 50.222 0 45.557 0m109.388 9.352H138.44v-3.63h16.505v3.63zm6.878-.742V6.458c0-4.156-2.26-6.458-6.928-6.458h-23.218v23.475h6.764v-8.41h11.548l4.72 8.41h7.827l-5.112-8.682c2.96-.723 4.404-2.863 4.404-6.183m3.806 13.414V21.3h.416c.244 0 .517.048.517.346 0 .342-.24.378-.52.378h-.414zm1.405-.34c0-.533-.327-.747-.935-.747h-.945v2.537h.475V22.38h.285l.654 1.094h.485l-.684-1.11c.42-.036.666-.247.666-.68"/><path d="M166.013 24.06c-.936 0-1.69-.757-1.69-1.805 0-1.047.754-1.802 1.69-1.802.932 0 1.69.755 1.69 1.802 0 1.048-.758 1.805-1.69 1.805zm0-4.042c-1.235 0-2.237 1.004-2.237 2.237 0 1.234 1.002 2.236 2.237 2.236 1.233 0 2.236-1 2.236-2.232s-1.007-2.237-2.24-2.237"/></g><path fill="#b3b3b3" d="M178.4 0h1.75v23.56h-1.75z"/></svg>